<svg width="100" height="40" viewBox="0 0 100 40" fill="none" xmlns="http://www.w3.org/2000/svg">
<g id="Box">
<rect id="Rectangle 1" width="100" height="40" fill="#D9D9D9"/>
<rect id="Rectangle 2" width="100" height="4" fill="#FF0000"/>
<rect id="Rectangle 4" y="40" width="40" height="4" transform="rotate(-90 0 40)" fill="#FF0000"/>
<rect id="Rectangle 5" x="96" y="40" width="40" height="4" transform="rotate(-90 96 40)" fill="#FF0000"/>
<rect id="Rectangle 6" x="92" y="36" width="32" height="4" transform="rotate(-90 92 36)" fill="#1400FF"/>
<rect id="Rectangle 8" x="4" y="4" width="92" height="4" fill="#1400FF"/>
<rect id="Rectangle 9" x="4" y="32" width="92" height="4" fill="#1400FF"/>
<rect id="Rectangle 10" x="8" y="28" width="84" height="4" fill="#00FF85"/>
<rect id="Rectangle 12" x="88" y="28" width="16" height="4" transform="rotate(-90 88 28)" fill="#00FF85"/>
<rect id="Rectangle 14" x="84" y="28" width="16" height="4" transform="rotate(-90 84 28)" fill="#FAFF00"/>
<rect id="Rectangle 16" x="12" y="12" width="76" height="4" fill="#FAFF00"/>
<rect id="Rectangle 18" x="16" y="16" width="68" height="4" fill="#23C5BB"/>
<rect id="Rectangle 19" x="16" y="20" width="68" height="4" fill="#23C5BB"/>
<rect id="Rectangle 17" x="12" y="24" width="76" height="4" fill="#FAFF00"/>
<rect id="Rectangle 15" x="12" y="28" width="16" height="4" transform="rotate(-90 12 28)" fill="#FAFF00"/>
<rect id="Rectangle 13" x="8" y="28" width="16" height="4" transform="rotate(-90 8 28)" fill="#00FF85"/>
<rect id="Rectangle 11" x="8" y="8" width="84" height="4" fill="#00FF85"/>
<rect id="Rectangle 7" x="4" y="36" width="32" height="4" transform="rotate(-90 4 36)" fill="#1400FF"/>
<rect id="Rectangle 3" y="36" width="100" height="4" fill="#FF0000"/>
</g>
</svg>
