<svg width="228" height="180" viewBox="0 0 228 180" fill="none" xmlns="http://www.w3.org/2000/svg">
<g id="empty-cart 1">
<path id="Vector" d="M118.549 144.524C151.036 144.524 177.371 118.129 177.371 85.5686C177.371 53.0085 151.036 26.6133 118.549 26.6133C86.0625 26.6133 59.7269 53.0085 59.7269 85.5686C59.7269 118.129 86.0625 144.524 118.549 144.524Z" fill="#DBE8EC"/>
<path id="Vector_2" d="M201.546 78.6646V72.2979C201.546 71.0839 201.065 69.9195 200.208 69.0611C199.352 68.2026 198.19 67.7203 196.979 67.7203H177.35C176.75 67.7203 176.156 67.6019 175.602 67.3718C175.048 67.1418 174.545 66.8046 174.12 66.3795C173.696 65.9545 173.36 65.4498 173.13 64.8944C172.901 64.3391 172.783 63.7438 172.783 63.1426V56.776C172.783 55.5619 173.264 54.3976 174.12 53.5391C174.977 52.6806 176.139 52.1983 177.35 52.1983H184.874C186.086 52.1983 187.248 51.716 188.104 50.8576C188.961 49.9991 189.442 48.8347 189.442 47.6207V41.254C189.442 40.0399 188.961 38.8756 188.104 38.0171C187.248 37.1586 186.086 36.6763 184.874 36.6763H50.2074C48.9961 36.6763 47.8344 37.1586 46.9778 38.0171C46.1213 38.8756 45.6401 40.0399 45.6401 41.254V47.6207C45.6401 48.8347 46.1213 49.9991 46.9778 50.8576C47.8344 51.716 48.9961 52.1983 50.2074 52.1983C51.4187 52.1983 52.5805 52.6806 53.437 53.5391C54.2935 54.3976 54.7747 55.5619 54.7747 56.776V63.1426C54.7747 64.3567 54.2935 65.5211 53.437 66.3795C52.5805 67.238 51.4187 67.7203 50.2074 67.7203H29.0375C27.8262 67.7203 26.6645 68.2026 25.8079 69.0611C24.9514 69.9195 24.4702 71.0839 24.4702 72.2979V78.6646C24.4702 79.8787 24.9514 81.043 25.8079 81.9015C26.6645 82.76 27.8262 83.2423 29.0375 83.2423H49.9987C50.5985 83.2423 51.1924 83.3607 51.7465 83.5907C52.3006 83.8208 52.8041 84.158 53.2283 84.583C53.6524 85.0081 53.9888 85.5127 54.2183 86.0681C54.4479 86.6235 54.566 87.2188 54.566 87.8199V94.1866C54.6779 100.013 41.9981 98.7643 39.4756 98.7643H39.4589C38.2475 98.7643 37.0858 99.2466 36.2293 100.105C35.3727 100.964 34.8915 102.128 34.8915 103.342V109.709C34.8915 110.923 35.3727 112.087 36.2293 112.945C37.0858 113.804 38.2475 114.286 39.4589 114.286H50.9846C52.1959 114.286 53.3577 114.769 54.2142 115.627C55.0707 116.485 55.5519 117.65 55.5519 118.864V125.231C55.5519 126.445 55.0707 127.609 54.2142 128.467C53.3577 129.326 52.1959 129.808 50.9846 129.808H38.0365C36.8252 129.808 35.6635 130.291 34.8069 131.149C33.9504 132.008 33.4692 133.172 33.4692 134.386V140.753C33.4692 141.967 33.9504 143.131 34.8069 143.989C35.6635 144.848 36.8252 145.33 38.0365 145.33H183.819C185.03 145.33 186.192 144.848 187.048 143.989C187.905 143.131 188.386 141.967 188.386 140.753V134.386C188.386 133.172 187.905 132.007 187.048 131.149C186.192 130.291 185.03 129.808 183.819 129.808H176.351C175.14 129.808 173.978 129.326 173.121 128.467C172.265 127.609 171.784 126.445 171.784 125.231V118.864C171.784 117.65 172.265 116.485 173.121 115.627C173.978 114.769 175.14 114.286 176.351 114.286H189.196C190.408 114.286 191.569 113.804 192.426 112.945C193.282 112.087 193.764 110.923 193.764 109.709V103.342C193.764 102.128 193.282 100.964 192.426 100.105C191.569 99.2466 190.408 98.7643 189.196 98.7643H182.856C181.645 98.7643 180.483 98.282 179.626 97.4235C178.77 96.5651 178.289 95.4007 178.289 94.1866V87.8199C178.289 87.2188 178.407 86.6235 178.636 86.0681C178.866 85.5127 179.202 85.0081 179.626 84.583C180.051 84.158 180.554 83.8208 181.108 83.5907C181.662 83.3607 182.256 83.2423 182.856 83.2423H196.979C198.19 83.2423 199.352 82.76 200.208 81.9015C201.065 81.043 201.546 79.8787 201.546 78.6646Z" fill="#DBE8EC"/>
<path id="Vector_3" d="M119.499 68.7336C128.596 68.7336 135.971 61.3423 135.971 52.2246C135.971 43.1069 128.596 35.7156 119.499 35.7156C110.402 35.7156 103.027 43.1069 103.027 52.2246C103.027 61.3423 110.402 68.7336 119.499 68.7336Z" fill="#8B0D0D"/>
<path id="Vector_4" d="M113.668 48.787C113.667 48.7665 113.667 48.7461 113.667 48.7257C113.667 47.5733 114.007 46.4466 114.644 45.4872C115.281 44.5278 116.187 43.7786 117.248 43.3338C118.309 42.8889 119.477 42.7682 120.606 42.9869C121.735 43.2056 122.774 43.7538 123.593 44.5628C124.412 45.3717 124.974 46.4053 125.208 47.5334C125.443 48.6616 125.339 49.8341 124.911 50.9036C124.482 51.973 123.748 52.8916 122.8 53.544C121.852 54.1963 120.733 54.5533 119.584 54.57V59.8775" stroke="#DE8D00" stroke-width="4" stroke-linecap="round" stroke-linejoin="round"/>
<path id="Vector_5" d="M147.207 41.1114H158.538" stroke="#4F0202" stroke-width="3" stroke-miterlimit="10" stroke-linecap="round"/>
<path id="Vector_6" d="M147.207 44.3848H158.538" stroke="#8B0D0D" stroke-width="3" stroke-miterlimit="10" stroke-linecap="round"/>
<path id="Vector_7" d="M147.207 47.6578H158.538" stroke="#4F0202" stroke-width="3" stroke-miterlimit="10" stroke-linecap="round"/>
<path id="Vector_8" d="M41.7952 103.276H53.1261" stroke="#8B0D0D" stroke-width="3" stroke-miterlimit="10" stroke-linecap="round"/>
<path id="Vector_9" d="M41.7952 106.549H53.1261" stroke="#4F0202" stroke-width="3" stroke-miterlimit="10" stroke-linecap="round"/>
<path id="Vector_10" d="M41.7952 109.822H53.1261" stroke="#8B0D0D" stroke-width="3" stroke-miterlimit="10" stroke-linecap="round"/>
<path id="Vector_11" d="M168.945 126.617H180.275" stroke="#8B0D0D" stroke-width="3" stroke-miterlimit="10" stroke-linecap="round"/>
<path id="Vector_12" d="M168.945 129.891H180.275" stroke="#4F0202" stroke-width="3" stroke-miterlimit="10" stroke-linecap="round"/>
<path id="Vector_13" d="M168.945 133.164H180.275" stroke="#8B0D0D" stroke-width="3" stroke-miterlimit="10" stroke-linecap="round"/>
<path id="Vector_14" d="M182.602 110.497C185.277 110.497 187.445 108.324 187.445 105.643C187.445 102.962 185.277 100.789 182.602 100.789C179.928 100.789 177.759 102.962 177.759 105.643C177.759 108.324 179.928 110.497 182.602 110.497Z" fill="#8B0D0D"/>
<path id="Vector_15" d="M169.822 111.663C171.209 111.663 172.333 110.536 172.333 109.146C172.333 107.756 171.209 106.63 169.822 106.63C168.435 106.63 167.311 107.756 167.311 109.146C167.311 110.536 168.435 111.663 169.822 111.663Z" fill="#8B0D0D"/>
<path id="Vector_16" d="M176.198 97.3614C178.18 97.3614 179.786 95.7515 179.786 93.7656C179.786 91.7797 178.18 90.1698 176.198 90.1698C174.217 90.1698 172.611 91.7797 172.611 93.7656C172.611 95.7515 174.217 97.3614 176.198 97.3614Z" fill="#4F0202"/>
<path id="Vector_17" d="M72.3963 142.77C75.5788 142.77 78.1588 140.184 78.1588 136.995C78.1588 133.805 75.5788 131.219 72.3963 131.219C69.2138 131.219 66.6339 133.805 66.6339 136.995C66.6339 140.184 69.2138 142.77 72.3963 142.77Z" fill="#8B0D0D"/>
<path id="Vector_18" d="M61.385 135.89C63.0427 135.89 64.3865 134.543 64.3865 132.881C64.3865 131.22 63.0427 129.873 61.385 129.873C59.7273 129.873 58.3834 131.22 58.3834 132.881C58.3834 134.543 59.7273 135.89 61.385 135.89Z" fill="#4F0202"/>
<path id="Vector_19" d="M64.142 124.391C65.0982 124.391 65.8734 123.614 65.8734 122.655C65.8734 121.697 65.0982 120.92 64.142 120.92C63.1858 120.92 62.4106 121.697 62.4106 122.655C62.4106 123.614 63.1858 124.391 64.142 124.391Z" fill="#4F0202"/>
<path id="Vector_20" d="M73.7264 128.043C76.0188 128.043 77.8771 126.18 77.8771 123.883C77.8771 121.585 76.0188 119.723 73.7264 119.723C71.4341 119.723 69.5758 121.585 69.5758 123.883C69.5758 126.18 71.4341 128.043 73.7264 128.043Z" fill="#8B0D0D"/>
<path id="Vector_21" d="M76.6161 56.0696C79.7986 56.0696 82.3785 53.4839 82.3785 50.2942C82.3785 47.1045 79.7986 44.5187 76.6161 44.5187C73.4336 44.5187 70.8536 47.1045 70.8536 50.2942C70.8536 53.4839 73.4336 56.0696 76.6161 56.0696Z" fill="#4F0202"/>
<path id="Vector_22" d="M76.85 41.5269C78.5077 41.5269 79.8516 40.18 79.8516 38.5186C79.8516 36.8571 78.5077 35.5103 76.85 35.5103C75.1923 35.5103 73.8485 36.8571 73.8485 38.5186C73.8485 40.18 75.1923 41.5269 76.85 41.5269Z" fill="#4F0202"/>
<path id="Vector_23" d="M96.8421 42.8801C98.2768 42.8801 99.4399 41.7144 99.4399 40.2764C99.4399 38.8384 98.2768 37.6727 96.8421 37.6727C95.4074 37.6727 94.2443 38.8384 94.2443 40.2764C94.2443 41.7144 95.4074 42.8801 96.8421 42.8801Z" fill="#4F0202"/>
<path id="Vector_24" d="M87.391 39.4815C88.3472 39.4815 89.1224 38.7046 89.1224 37.7462C89.1224 36.7878 88.3472 36.0109 87.391 36.0109C86.4348 36.0109 85.6596 36.7878 85.6596 37.7462C85.6596 38.7046 86.4348 39.4815 87.391 39.4815Z" fill="#4F0202"/>
<path id="Vector_25" d="M89.403 51.3784C91.6953 51.3784 93.5536 49.5159 93.5536 47.2184C93.5536 44.9208 91.6953 43.0583 89.403 43.0583C87.1107 43.0583 85.2523 44.9208 85.2523 47.2184C85.2523 49.5159 87.1107 51.3784 89.403 51.3784Z" fill="#8B0D0D"/>
<path id="Vector_26" d="M168.67 81.9995H71.0734L67.891 73.9135H168.67C168.796 73.9135 168.92 73.9382 169.036 73.9863C169.151 74.0344 169.257 74.1049 169.345 74.1938C169.434 74.2826 169.504 74.3881 169.552 74.5042C169.6 74.6203 169.625 74.7447 169.625 74.8704V81.0427C169.625 81.1683 169.6 81.2927 169.552 81.4088C169.504 81.5249 169.434 81.6304 169.345 81.7193C169.257 81.8081 169.151 81.8786 169.036 81.9267C168.92 81.9748 168.796 81.9995 168.67 81.9995Z" fill="#4F0202"/>
<path id="Vector_27" d="M154.452 124.484H88.0875C87.7637 124.484 87.4476 124.385 87.1814 124.201C86.9152 124.016 86.7116 123.754 86.5978 123.45L71.0734 81.9995H165.271L156.004 123.24C155.925 123.593 155.728 123.909 155.446 124.135C155.163 124.361 154.813 124.484 154.452 124.484Z" fill="#8B0D0D"/>
<path id="Vector_28" d="M160.499 103.243C153.71 103.679 146.921 103.908 140.131 104.063C136.737 104.16 133.342 104.182 129.948 104.239L119.764 104.297C112.975 104.303 106.186 104.226 99.3965 104.066C92.6074 103.912 85.8183 103.682 79.0291 103.243C85.8183 102.804 92.6074 102.574 99.3965 102.42C106.186 102.267 112.975 102.19 119.764 102.189L129.948 102.247C133.342 102.304 136.737 102.326 140.131 102.423C146.92 102.578 153.71 102.807 160.499 103.243Z" fill="#4F0202"/>
<path id="Vector_29" d="M147.219 81.9995C146.832 85.707 146.241 89.3684 145.589 93.0159C144.928 96.6616 144.19 100.29 143.376 103.901C142.566 107.513 141.681 111.108 140.722 114.686C140.238 116.474 139.737 118.259 139.201 120.035C138.925 120.921 138.661 121.811 138.373 122.694L138.152 123.366C138.065 123.612 137.923 123.836 137.737 124.019C137.563 124.192 137.352 124.324 137.121 124.404C136.889 124.485 136.643 124.512 136.399 124.485C136.619 124.458 136.831 124.385 137.02 124.269C137.209 124.153 137.37 123.998 137.494 123.814C137.609 123.644 137.685 123.45 137.716 123.247L137.804 122.566C137.922 121.644 138.064 120.727 138.193 119.808C138.47 117.973 138.78 116.145 139.108 114.322C139.769 110.676 140.507 107.048 141.323 103.438C142.136 99.8262 143.022 96.2313 143.98 92.6527C144.951 89.0771 145.983 85.5152 147.219 81.9995ZM109.295 124.485C109.041 124.512 108.785 124.48 108.546 124.391C108.307 124.302 108.092 124.159 107.918 123.972C107.748 123.775 107.611 123.552 107.513 123.31L107.198 122.657C106.779 121.787 106.384 120.907 105.976 120.033C105.177 118.277 104.411 116.509 103.66 114.734C102.165 111.184 100.744 107.606 99.3967 104C98.045 100.395 96.7649 96.7641 95.5565 93.1058C94.3584 89.4437 93.2205 85.7588 92.2807 81.9995C94.0412 85.4501 95.6037 88.9752 97.1058 92.5229C98.6003 96.0736 100.021 99.6522 101.367 103.259C102.716 106.864 103.995 110.496 105.204 114.154C105.804 115.985 106.387 117.821 106.938 119.67C107.205 120.598 107.485 121.521 107.741 122.453L107.933 123.152C107.977 123.371 108.056 123.582 108.167 123.776C108.29 123.972 108.455 124.137 108.65 124.259C108.846 124.382 109.066 124.459 109.295 124.485Z" fill="#4F0202"/>
<path id="Vector_30" d="M104.566 157.078C108.197 157.078 111.141 154.128 111.141 150.489C111.141 146.85 108.197 143.9 104.566 143.9C100.935 143.9 97.9916 146.85 97.9916 150.489C97.9916 154.128 100.935 157.078 104.566 157.078Z" fill="#4F0202"/>
<path id="Vector_31" d="M104.566 153.531C106.242 153.531 107.601 152.169 107.601 150.489C107.601 148.809 106.242 147.448 104.566 147.448C102.89 147.448 101.532 148.809 101.532 150.489C101.532 152.169 102.89 153.531 104.566 153.531Z" fill="#8B0D0D"/>
<path id="Vector_32" d="M142.491 157.078C146.122 157.078 149.065 154.128 149.065 150.489C149.065 146.85 146.122 143.9 142.491 143.9C138.86 143.9 135.916 146.85 135.916 150.489C135.916 154.128 138.86 157.078 142.491 157.078Z" fill="#4F0202"/>
<path id="Vector_33" d="M142.491 153.531C144.167 153.531 145.525 152.169 145.525 150.489C145.525 148.809 144.167 147.448 142.491 147.448C140.815 147.448 139.456 148.809 139.456 150.489C139.456 152.169 140.815 153.531 142.491 153.531Z" fill="#8B0D0D"/>
<path id="Vector_34" d="M120.346 81.9995C120.991 85.514 121.427 89.0409 121.801 92.5716C122.165 96.1028 122.451 99.6387 122.659 103.179C122.871 106.72 123.007 110.265 123.066 113.814C123.115 117.364 123.099 120.918 122.872 124.485C122.224 120.97 121.787 117.443 121.414 113.913C121.05 110.381 120.765 106.845 120.559 103.305C120.35 99.7643 120.215 96.2193 120.154 92.6699C120.107 89.1198 120.122 85.5659 120.346 81.9995Z" fill="#4F0202"/>
<path id="Vector_35" d="M153.615 140.555H94.1409C93.928 140.555 93.7201 140.49 93.5447 140.37C93.3693 140.249 93.2346 140.077 93.1584 139.878L58.7134 49.886H40.4686C40.1895 49.886 39.9219 49.7749 39.7245 49.5771C39.5272 49.3793 39.4163 49.111 39.4163 48.8313C39.4163 48.5516 39.5272 48.2833 39.7245 48.0856C39.9219 47.8878 40.1895 47.7766 40.4686 47.7766H59.4368C59.6497 47.7767 59.8575 47.8414 60.033 47.9622C60.2084 48.0831 60.3431 48.2545 60.4193 48.4537L94.8642 138.446H153.615C153.894 138.446 154.162 138.557 154.359 138.755C154.557 138.952 154.667 139.221 154.667 139.5C154.667 139.78 154.557 140.048 154.359 140.246C154.162 140.444 153.894 140.555 153.615 140.555Z" fill="#4F0202"/>
<path id="Vector_36" d="M49.6191 45.7903H37.1317C36.7443 45.7903 36.4302 46.1051 36.4302 46.4934V51.5419C36.4302 51.9302 36.7443 52.245 37.1317 52.245H49.6191C50.0065 52.245 50.3206 51.9302 50.3206 51.5419V46.4934C50.3206 46.1051 50.0065 45.7903 49.6191 45.7903Z" fill="#4F0202"/>
<path id="Vector_37" d="M119.499 64.0898C120.022 64.0898 120.446 63.6649 120.446 63.1406C120.446 62.6164 120.022 62.1914 119.499 62.1914C118.976 62.1914 118.552 62.6164 118.552 63.1406C118.552 63.6649 118.976 64.0898 119.499 64.0898Z" fill="#F9AE2B"/>
</g>
</svg>
