<?xml version="1.0" standalone="no"?>
<!DOCTYPE svg PUBLIC "-//W3C//DTD SVG 20010904//EN"
 "http://www.w3.org/TR/2001/REC-SVG-20010904/DTD/svg10.dtd">
<svg version="1.0" xmlns="http://www.w3.org/2000/svg"
 width="1093.000000pt" height="1093.000000pt" viewBox="0 0 1093.000000 1093.000000"
 preserveAspectRatio="xMidYMid meet">
<metadata>
Created by potrace 1.14, written by Peter Selinger 2001-2017
</metadata>
<g transform="translate(0.000000,1093.000000) scale(0.100000,-0.100000)"
fill="#000000" stroke="none">
<path d="M210 5465 l0 -5465 5255 0 5255 0 0 5465 0 5465 -5255 0 -5255 0 0
-5465z m3132 5033 c9 -7 560 -749 1225 -1648 665 -899 1235 -1668 1266 -1708
l56 -72 54 67 c29 38 599 806 1266 1708 667 902 1220 1646 1229 1653 35 27 85
15 163 -41 251 -181 1327 -982 1342 -1000 14 -16 18 -34 15 -77 l-3 -55 -1440
-1945 c-792 -1070 -1474 -1991 -1515 -2047 -101 -138 -843 -1140 -1105 -1493
-117 -157 -726 -980 -1355 -1830 -628 -850 -1154 -1557 -1168 -1572 -22 -24
-34 -28 -77 -28 -47 0 -59 5 -126 53 -243 175 -1327 982 -1341 999 -46 53
-116 -46 1368 1959 763 1031 1411 1909 1441 1952 l55 77 -38 53 c-21 28 -659
891 -1418 1917 -759 1026 -1390 1880 -1403 1899 -35 51 -33 128 5 163 15 14
297 225 627 469 330 243 635 469 678 501 72 53 83 58 131 58 29 0 59 -6 68
-12z"/>
</g>
</svg>
